<?xml version="1.0" standalone="yes"?>

<svg version="1.1" viewBox="0.0 0.0 283.1916010498688 283.1916010498688" fill="none" stroke="none" stroke-linecap="square" stroke-miterlimit="10" xmlns="http://www.w3.org/2000/svg" xmlns:xlink="http://www.w3.org/1999/xlink"><clipPath id="p.0"><path d="m0 0l283.1916 0l0 283.1916l-283.1916 0l0 -283.1916z" clip-rule="nonzero"></path></clipPath><g clip-path="url(#p.0)"><path fill="#000000" fill-opacity="0.0" d="m0 0l283.1916 0l0 283.1916l-283.1916 0z" fill-rule="nonzero"></path><path fill="#000000" fill-opacity="0.0" d="m121.64042 5.4566927l0 0c43.16915 0 78.23846 60.376545 78.502464 135.1526c0.26402283 74.77605 -34.376343 135.8911 -77.54225 136.80574l-0.9602127 -135.97409z" fill-rule="nonzero"></path><path fill="#000000" fill-opacity="0.0" d="m121.64042 5.4566927l0 0c43.16915 0 78.23846 60.376545 78.502464 135.1526c0.26402283 74.77605 -34.376343 135.8911 -77.54225 136.80574" fill-rule="nonzero"></path><path stroke="#ff9900" stroke-width="16.0" stroke-linejoin="round" stroke-linecap="butt" d="m121.64042 5.4566927l0 0c43.16915 0 78.23846 60.376545 78.502464 135.1526c0.26402283 74.77605 -34.376343 135.8911 -77.54225 136.80574" fill-rule="nonzero"></path><path fill="#000000" fill-opacity="0.0" d="m161.55905 277.4567l0 0c-43.169144 0 -78.23845 -60.376556 -78.502464 -135.1526c-0.2640152 -74.776054 34.376343 -135.8911 77.54226 -136.80573l0.9602051 135.97408z" fill-rule="nonzero"></path><path fill="#000000" fill-opacity="0.0" d="m161.55905 277.4567l0 0c-43.169144 0 -78.23845 -60.376556 -78.502464 -135.1526c-0.2640152 -74.776054 34.376343 -135.8911 77.54226 -136.80573" fill-rule="nonzero"></path><path stroke="#ff9900" stroke-width="16.0" stroke-linejoin="round" stroke-linecap="butt" d="m161.55905 277.4567l0 0c-43.169144 0 -78.23845 -60.376556 -78.502464 -135.1526c-0.2640152 -74.776054 34.376343 -135.8911 77.54226 -136.80573" fill-rule="nonzero"></path><path fill="#000000" fill-opacity="0.0" d="m277.59973 121.51312l0 0c0 43.169144 -60.37654 78.23845 -135.15259 78.50247c-74.776054 0.26400757 -135.89111 -34.376343 -136.80574 -77.54226l135.97408 -0.9602127z" fill-rule="nonzero"></path><path fill="#000000" fill-opacity="0.0" d="m277.59973 121.51312l0 0c0 43.169144 -60.37654 78.23845 -135.15259 78.50247c-74.776054 0.26400757 -135.89111 -34.376343 -136.80574 -77.54226" fill-rule="nonzero"></path><path stroke="#ff9900" stroke-width="16.0" stroke-linejoin="round" stroke-linecap="butt" d="m277.59973 121.51312l0 0c0 43.169144 -60.37654 78.23845 -135.15259 78.50247c-74.776054 0.26400757 -135.89111 -34.376343 -136.80574 -77.54226" fill-rule="nonzero"></path><path fill="#000000" fill-opacity="0.0" d="m5.5997376 161.43176l0 0c0 -43.16915 60.37655 -78.23846 135.1526 -78.50247c74.77606 -0.2640152 135.8911 34.376343 136.80574 77.54225l-135.97409 0.96022034z" fill-rule="nonzero"></path><path fill="#000000" fill-opacity="0.0" d="m5.5997376 161.43176l0 0c0 -43.16915 60.37655 -78.23846 135.1526 -78.50247c74.77606 -0.2640152 135.8911 34.376343 136.80574 77.54225" fill-rule="nonzero"></path><path stroke="#ff9900" stroke-width="16.0" stroke-linejoin="round" stroke-linecap="butt" d="m5.5997376 161.43176l0 0c0 -43.16915 60.37655 -78.23846 135.1526 -78.50247c74.77606 -0.2640152 135.8911 34.376343 136.80574 77.54225" fill-rule="nonzero"></path><path fill="#000000" fill-opacity="0.0" d="m223.66978 31.193693l0 0c30.525818 30.525827 12.630478 98.01767 -40.058624 151.08017c-52.689117 53.0625 -120.39986 71.78337 -151.57016 41.906586l95.4713 -96.82928z" fill-rule="nonzero"></path><path fill="#000000" fill-opacity="0.0" d="m223.66978 31.193693l0 0c30.525818 30.525827 12.630478 98.01767 -40.058624 151.08017c-52.689117 53.0625 -120.39986 71.78337 -151.57016 41.906586" fill-rule="nonzero"></path><path stroke="#ff9900" stroke-width="16.0" stroke-linejoin="round" stroke-linecap="butt" d="m223.66978 31.193693l0 0c30.525818 30.525827 12.630478 98.01767 -40.058624 151.08017c-52.689117 53.0625 -120.39986 71.78337 -151.57016 41.906586" fill-rule="nonzero"></path><path fill="#000000" fill-opacity="0.0" d="m59.561188 251.75119l0 0c-30.525826 -30.525833 -12.630486 -98.01767 40.05863 -151.08017c52.68911 -53.062496 120.39985 -71.78337 151.57016 -41.90658l-95.4713 96.82927z" fill-rule="nonzero"></path><path fill="#000000" fill-opacity="0.0" d="m59.561188 251.75119l0 0c-30.525826 -30.525833 -12.630486 -98.01767 40.05863 -151.08017c52.68911 -53.062496 120.39985 -71.78337 151.57016 -41.90658" fill-rule="nonzero"></path><path stroke="#ff9900" stroke-width="16.0" stroke-linejoin="round" stroke-linecap="butt" d="m59.561188 251.75119l0 0c-30.525826 -30.525833 -12.630486 -98.01767 40.05863 -151.08017c52.68911 -53.062496 120.39985 -71.78337 151.57016 -41.90658" fill-rule="nonzero"></path><path fill="#000000" fill-opacity="0.0" d="m251.8831 223.53787l0 0c-30.525833 30.525833 -98.01767 12.630493 -151.08017 -40.058624c-53.062496 -52.689117 -71.78337 -120.39986 -41.906586 -151.57016l96.82927 95.4713z" fill-rule="nonzero"></path><path fill="#000000" fill-opacity="0.0" d="m251.8831 223.53787l0 0c-30.525833 30.525833 -98.01767 12.630493 -151.08017 -40.058624c-53.062496 -52.689117 -71.78337 -120.39986 -41.906586 -151.57016" fill-rule="nonzero"></path><path stroke="#ff9900" stroke-width="16.0" stroke-linejoin="round" stroke-linecap="butt" d="m251.8831 223.53787l0 0c-30.525833 30.525833 -98.01767 12.630493 -151.08017 -40.058624c-53.062496 -52.689117 -71.78337 -120.39986 -41.906586 -151.57016" fill-rule="nonzero"></path><path fill="#000000" fill-opacity="0.0" d="m31.325602 59.42928l0 0c30.525827 -30.525827 98.01768 -12.630489 151.08017 40.058628c53.062485 52.68911 71.783356 120.39985 41.90657 151.57016l-96.82927 -95.4713z" fill-rule="nonzero"></path><path fill="#000000" fill-opacity="0.0" d="m31.325602 59.42928l0 0c30.525827 -30.525827 98.01768 -12.630489 151.08017 40.058628c53.062485 52.68911 71.783356 120.39985 41.90657 151.57016" fill-rule="nonzero"></path><path stroke="#ff9900" stroke-width="16.0" stroke-linejoin="round" stroke-linecap="butt" d="m31.325602 59.42928l0 0c30.525827 -30.525827 98.01768 -12.630489 151.08017 40.058628c53.062485 52.68911 71.783356 120.39985 41.90657 151.57016" fill-rule="nonzero"></path></g></svg>

